
<!-- Generator: Adobe Illustrator 19.1.1, SVG Export Plug-In . SVG Version: 6.00 Build 0)  -->
<svg version="1.1" id="Layer_1" xmlns="http://www.w3.org/2000/svg" xmlns:xlink="http://www.w3.org/1999/xlink" x="0px" y="0px"
	 viewBox="0 0 40 40" style="enable-background:new 0 0 40 40;" xml:space="preserve">
<g>
	<path style="fill:#F5CE85;" d="M19.999,38.458C18.291,37.715,4.636,30.984,4.501,6.367L20,1.524l15.499,4.843
		C35.364,30.919,21.707,37.708,19.999,38.458z"/>
	<g>
		<path style="fill:#967A44;" d="M20,2.048l14.996,4.686C34.738,29.916,22.252,36.848,19.998,37.91
			c-2.26-1.056-14.736-7.941-14.994-31.176L20,2.048 M20,1L4,6c0,27.141,16,33,16,33s16-5.932,16-33L20,1L20,1z"/>
	</g>
</g>
<g>
	<g>
		<path style="fill:#967A44;" d="M17.58,26.5l1.086-7.264l-0.311-0.167C17.211,18.454,16.5,17.278,16.5,16c0-1.93,1.57-3.5,3.5-3.5
			s3.5,1.57,3.5,3.5c0,1.278-0.711,2.454-1.855,3.069l-0.311,0.167L22.42,26.5H17.58z"/>
	</g>
	<g>
		<path style="fill:#704E34;" d="M20,13c1.654,0,3,1.346,3,3c0,1.094-0.61,2.101-1.592,2.629l-0.619,0.333l0.104,0.696L21.84,26
			H18.16l0.947-6.343l0.104-0.696l-0.619-0.333C17.61,18.101,17,17.094,17,16C17,14.346,18.346,13,20,13 M20,12
			c-2.209,0-4,1.791-4,4c0,1.525,0.863,2.835,2.119,3.51L17,27h6l-1.119-7.49C23.137,18.835,24,17.525,24,16
			C24,13.791,22.209,12,20,12L20,12z"/>
	</g>
</g>
</svg>
