<?xml version="1.0" encoding="utf-8"?>
<!-- Svg Vector Icons : http://www.onlinewebfonts.com/icon -->
<!DOCTYPE svg PUBLIC "-//W3C//DTD SVG 1.1//EN" "http://www.w3.org/Graphics/SVG/1.1/DTD/svg11.dtd">
<svg version="1.1" xmlns="http://www.w3.org/2000/svg" xmlns:xlink="http://www.w3.org/1999/xlink" x="0px" y="0px" viewBox="0 0 1000 1000" enable-background="new 0 0 1000 1000" xml:space="preserve">
<metadata> Svg Vector Icons : http://www.onlinewebfonts.com/icon </metadata>
<g><g transform="translate(0.000000,511.000000) scale(0.100000,-0.100000)"><path d="M996.6,1652.8C122.4,876.6,74.3,830.5,107,801.7c34.6-32.7,1736.9-1539,1794.5-1588.9c28.8-25,42.3-17.3,119.1,65.3c48,50,82.6,98,78.8,105.7C2093.6-608.6,1769-312.7,1377,37L664.2,676.8l3418,9.6l3418,9.6l5.8,138.3l5.8,140.3l-3425.7,3.8l-3427.6,5.8l726.3,649.4l726.3,651.3l-82.6,94.1c-44.2,51.9-86.5,94.1-94.2,94.1C1928.4,2473.2,1505.7,2104.3,996.6,1652.8z"/><path d="M7955.6,936.2l-82.6-92.2l274.7-247.9c151.8-136.4,476.5-428.5,724.3-649.4l449.6-403.5l-3418-9.6l-3418-9.6l-5.8-138.3l-5.8-140.3h3431.5H9337l-730.1-655.2l-732-655.2l82.6-94.1c44.2-51.9,86.5-94.2,94.2-94.2c15.4,0,1842.5,1621.6,1848.3,1638.9c1.9,13.5-1836.8,1646.6-1852.2,1644.7C8042.1,1028.4,8001.7,986.1,7955.6,936.2z"/></g></g>
</svg>